{"title":"Batman v Superman 2016 Extended 1080p BRRIP.x265.HEVC-ROIMEZ","uid":15487541,"size":8917627878,"categoryP":"video","categoryS":"hd___movies","magnet":"?xt=urn:btih:867a8a30b14764a1f51a14c9f72c063a7951bf35&amp;dn=Batman+v+Superman+2016+Extended+1080p+BRRIP.x265.HEVC-ROIMEZ&amp;tr=udp%3A%2F%2Ftracker.leechers-paradise.org%3A6969&amp;tr=udp%3A%2F%2Fzer0day.ch%3A1337&amp;tr=udp%3A%2F%2Fopen.demonii.com%3A1337&amp;tr=udp%3A%2F%2Ftracker.coppersurfer.tk%3A6969&amp;tr=udp%3A%2F%2Fexodus.desync.com%3A6969","seeders":1,"leechers":0,"uploader":"Pirulo233","files":7,"time":1470338287,"description":"Complete name: Batman.v.Superman.Dawn.of.Justice.2016.Extended.1080p.BRRIP.x265.HEVC.10bit.DTS.5.1-ROIMEZ\r\nFearing that the actions of Superman are left unchecked, Batman takes on the Man of Steel, while the world wrestles with what kind of a hero it really needs.\r\n\r\nGenres: Action, Adventure, Sci-Fi  \r\nCast: Ben Affleck, Henry Cavill, Amy Adams     \r\n\r\nRelease date: 23 March 2016    \r\nLanguage: English\r\nSubtitles: English &amp; Spanish\r\nSource: Batman.v.Superman.Dawn.of.Justice.2016.Extended.Ultimate.Edition.BDREMUX.1080p.ExKinoRay \r\n\r\nGeneral\r\nFormat                      : Matroska\r\nFormat version              : Version 4 / Version 2\r\nFile size                   : 8.30 GiB\r\nDuration                    : 3h 2mn\r\nOverall bit rate            : 6 512 Kbps\r\nEncoded date                : UTC 2016-08-02 21:48:08\r\nWriting application         : mkvmerge v9.0.1 ('Obstacles') 64bit\r\nWriting library             : libebml v1.3.3 + libmatroska v1.4.4\r\n\r\nVideo\r\nID                          : 1\r\nFormat                      : HEVC\r\nFormat/Info                 : High Efficiency Video Coding\r\nFormat profile              : Main   @Main\r\nCodec ID                    : V_MPEGH/ISO/HEVC\r\nDuration                    : 3h 2mn\r\nEncoding settings[Bit rate] : 2pass/5 001 Kbps\r\nWidth                       : 1 920 pixels\r\nHeight                      : 800 pixels\r\nDisplay aspect ratio        : 2.40:1\r\nFrame rate mode             : Constant\r\nFrame rate                  : 23.976 (24000/1001) fps\r\nOriginal frame rate         : 23.976 (23976/1000) fps\r\nColor space                 : YUV\r\nChroma subsampling          : 4:2:0\r\nBit depth                   : 10 bits\r\nBits/(Pixel*Frame)          : 0.136\r\nStream size                 : 6.38 GiB (77%)\r\nWriting library             : x265 1.9+140\r\nDefault                     : Yes\r\nForced                      : No\r\n\r\nAudio\r\nID         : 2\r\nFormat                      : DTS\r\nFormat/Info                 : Digital Theater Systems\r\nMode                        : 16\r\nFormat settings, Endianness : Big\r\nCodec ID                    : A_DTS\r\nDuration                    : 3h 2mn\r\nBit rate mode               : Constant\r\nBit rate                    : 1 509 Kbps\r\nChannel(s)                  : 6 channels\r\nChannel positions           : Front: L C R, Side: L R, LFE\r\nSampling rate               : 48.0 KHz\r\nFrame rate                  : 93.750 fps (512 spf)\r\nBit depth                   : 24 bits\r\nCompression mode            : Lossy\r\nStream size                 : 1.92 GiB (23%)\r\nDefault                     : Yes\r\nForced                      : No\r\n\r\nScreencaps: http://imgbox com/g/GokKWVaFRY\r\nScreencaps: http://imgbox com/YJbxKvuE","torrent":{"xt":"urn:btih:867a8a30b14764a1f51a14c9f72c063a7951bf35","amp;dn":"Batman+v+Superman+2016+Extended+1080p+BRRIP.x265.HEVC-ROIMEZ","amp;tr":["udp%3A%2F%2Ftracker.leechers-paradise.org%3A6969","udp%3A%2F%2Fzer0day.ch%3A1337","udp%3A%2F%2Fopen.demonii.com%3A1337","udp%3A%2F%2Ftracker.coppersurfer.tk%3A6969","udp%3A%2F%2Fexodus.desync.com%3A6969"],"infoHash":"867a8a30b14764a1f51a14c9f72c063a7951bf35","infoHashBuffer":{"type":"Buffer","data":[134,122,138,48,177,71,100,161,245,26,20,201,247,44,6,58,121,81,191,53]},"announce":[],"urlList":[]}}